<svg class="border shadow-md dark:border-slate-700" viewBox="0 0 874.72 492.03000000000003" xmlns="http://www.w3.org/2000/svg" preserveAspectRatio="none" style="width: 874.72px; height: 492.03px;"><rect class="bg" id="bg" x="0" y="0" width="874.72" height="492.03000000000003" fill="#5fd3ff"/><rect x="0" y="-44.730000000000004" width="87.47200000000001" height="134.19" fill="#c5b3ff" ry="21.9177"/><rect x="87.47200000000001" y="-44.730000000000004" width="87.47200000000001" height="134.19" fill="#c5b3ff" ry="21.9177"/><rect x="174.94400000000002" y="-44.730000000000004" width="87.47200000000001" height="134.19" fill="#c5b3ff" ry="21.9177"/><rect x="262.416" y="-44.730000000000004" width="87.47200000000001" height="134.19" fill="#ffacac" ry="21.9177"/><rect x="349.88800000000003" y="-44.730000000000004" width="87.47200000000001" height="134.19" fill="#ffacac" ry="21.9177"/><rect x="437.36" y="-44.730000000000004" width="87.47200000000001" height="134.19" fill="#FFF087" ry="21.9177"/><rect x="524.832" y="-44.730000000000004" width="87.47200000000001" height="134.19" fill="#FFF087" ry="21.9177"/><rect x="612.304" y="-44.730000000000004" width="87.47200000000001" height="134.19" fill="#FFF087" ry="21.9177"/><rect x="699.7760000000001" y="-44.730000000000004" width="87.47200000000001" height="134.19" fill="#ffacac" ry="21.9177"/><rect x="787.248" y="-44.730000000000004" width="87.47200000000001" height="134.19" fill="#ffacac" ry="21.9177"/><rect x="0" y="0" width="87.47200000000001" height="134.19" fill="#FFF087" ry="21.9177"/><rect x="87.47200000000001" y="0" width="87.47200000000001" height="134.19" fill="#c5b3ff" ry="21.9177"/><rect x="174.94400000000002" y="0" width="87.47200000000001" height="134.19" fill="#ffacac" ry="21.9177"/><rect x="262.416" y="0" width="87.47200000000001" height="134.19" fill="#9dd5ff" ry="21.9177"/><rect x="349.88800000000003" y="0" width="87.47200000000001" height="134.19" fill="#c5b3ff" ry="21.9177"/><rect x="437.36" y="0" width="87.47200000000001" height="134.19" fill="#9dd5ff" ry="21.9177"/><rect x="524.832" y="0" width="87.47200000000001" height="134.19" fill="#9dd5ff" ry="21.9177"/><rect x="612.304" y="0" width="87.47200000000001" height="134.19" fill="#FFF087" ry="21.9177"/><rect x="699.7760000000001" y="0" width="87.47200000000001" height="134.19" fill="#ffacac" ry="21.9177"/><rect x="787.248" y="0" width="87.47200000000001" height="134.19" fill="#FFF087" ry="21.9177"/><rect x="0" y="44.730000000000004" width="87.47200000000001" height="134.19" fill="#9dd5ff" ry="21.9177"/><rect x="87.47200000000001" y="44.730000000000004" width="87.47200000000001" height="134.19" fill="#9dd5ff" ry="21.9177"/><rect x="174.94400000000002" y="44.730000000000004" width="87.47200000000001" height="134.19" fill="#ffacac" ry="21.9177"/><rect x="262.416" y="44.730000000000004" width="87.47200000000001" height="134.19" fill="#ffacac" ry="21.9177"/><rect x="349.88800000000003" y="44.730000000000004" width="87.47200000000001" height="134.19" fill="#FFF087" ry="21.9177"/><rect x="437.36" y="44.730000000000004" width="87.47200000000001" height="134.19" fill="#9dd5ff" ry="21.9177"/><rect x="524.832" y="44.730000000000004" width="87.47200000000001" height="134.19" fill="#FFF087" ry="21.9177"/><rect x="612.304" y="44.730000000000004" width="87.47200000000001" height="134.19" fill="#ffacac" ry="21.9177"/><rect x="699.7760000000001" y="44.730000000000004" width="87.47200000000001" height="134.19" fill="#ffacac" ry="21.9177"/><rect x="787.248" y="44.730000000000004" width="87.47200000000001" height="134.19" fill="#9dd5ff" ry="21.9177"/><rect x="0" y="89.46000000000002" width="87.47200000000001" height="134.19" fill="#ffacac" ry="21.9177"/><rect x="87.47200000000001" y="89.46000000000002" width="87.47200000000001" height="134.19" fill="#FFF087" ry="21.9177"/><rect x="174.94400000000002" y="89.46000000000002" width="87.47200000000001" height="134.19" fill="#ffacac" ry="21.9177"/><rect x="262.416" y="89.46000000000002" width="87.47200000000001" height="134.19" fill="#9dd5ff" ry="21.9177"/><rect x="349.88800000000003" y="89.46000000000002" width="87.47200000000001" height="134.19" fill="#9dd5ff" ry="21.9177"/><rect x="437.36" y="89.46000000000002" width="87.47200000000001" height="134.19" fill="#c5b3ff" ry="21.9177"/><rect x="524.832" y="89.46000000000002" width="87.47200000000001" height="134.19" fill="#9dd5ff" ry="21.9177"/><rect x="612.304" y="89.46000000000002" width="87.47200000000001" height="134.19" fill="#ffacac" ry="21.9177"/><rect x="699.7760000000001" y="89.46000000000002" width="87.47200000000001" height="134.19" fill="#FFF087" ry="21.9177"/><rect x="787.248" y="89.46000000000002" width="87.47200000000001" height="134.19" fill="#9dd5ff" ry="21.9177"/><rect x="0" y="134.19" width="87.47200000000001" height="134.19" fill="#FFF087" ry="21.9177"/><rect x="87.47200000000001" y="134.19" width="87.47200000000001" height="134.19" fill="#c5b3ff" ry="21.9177"/><rect x="174.94400000000002" y="134.19" width="87.47200000000001" height="134.19" fill="#ffacac" ry="21.9177"/><rect x="262.416" y="134.19" width="87.47200000000001" height="134.19" fill="#ffacac" ry="21.9177"/><rect x="349.88800000000003" y="134.19" width="87.47200000000001" height="134.19" fill="#c5b3ff" ry="21.9177"/><rect x="437.36" y="134.19" width="87.47200000000001" height="134.19" fill="#c5b3ff" ry="21.9177"/><rect x="524.832" y="134.19" width="87.47200000000001" height="134.19" fill="#9dd5ff" ry="21.9177"/><rect x="612.304" y="134.19" width="87.47200000000001" height="134.19" fill="#c5b3ff" ry="21.9177"/><rect x="699.7760000000001" y="134.19" width="87.47200000000001" height="134.19" fill="#c5b3ff" ry="21.9177"/><rect x="787.248" y="134.19" width="87.47200000000001" height="134.19" fill="#ffacac" ry="21.9177"/><rect x="0" y="178.92000000000002" width="87.47200000000001" height="134.19" fill="#FFF087" ry="21.9177"/><rect x="87.47200000000001" y="178.92000000000002" width="87.47200000000001" height="134.19" fill="#c5b3ff" ry="21.9177"/><rect x="174.94400000000002" y="178.92000000000002" width="87.47200000000001" height="134.19" fill="#FFF087" ry="21.9177"/><rect x="262.416" y="178.92000000000002" width="87.47200000000001" height="134.19" fill="#FFF087" ry="21.9177"/><rect x="349.88800000000003" y="178.92000000000002" width="87.47200000000001" height="134.19" fill="#ffacac" ry="21.9177"/><rect x="437.36" y="178.92000000000002" width="87.47200000000001" height="134.19" fill="#c5b3ff" ry="21.9177"/><rect x="524.832" y="178.92000000000002" width="87.47200000000001" height="134.19" fill="#9dd5ff" ry="21.9177"/><rect x="612.304" y="178.92000000000002" width="87.47200000000001" height="134.19" fill="#ffacac" ry="21.9177"/><rect x="699.7760000000001" y="178.92000000000002" width="87.47200000000001" height="134.19" fill="#c5b3ff" ry="21.9177"/><rect x="787.248" y="178.92000000000002" width="87.47200000000001" height="134.19" fill="#9dd5ff" ry="21.9177"/><rect x="0" y="223.65000000000003" width="87.47200000000001" height="134.19" fill="#FFF087" ry="21.9177"/><rect x="87.47200000000001" y="223.65000000000003" width="87.47200000000001" height="134.19" fill="#ffacac" ry="21.9177"/><rect x="174.94400000000002" y="223.65000000000003" width="87.47200000000001" height="134.19" fill="#c5b3ff" ry="21.9177"/><rect x="262.416" y="223.65000000000003" width="87.47200000000001" height="134.19" fill="#FFF087" ry="21.9177"/><rect x="349.88800000000003" y="223.65000000000003" width="87.47200000000001" height="134.19" fill="#9dd5ff" ry="21.9177"/><rect x="437.36" y="223.65000000000003" width="87.47200000000001" height="134.19" fill="#c5b3ff" ry="21.9177"/><rect x="524.832" y="223.65000000000003" width="87.47200000000001" height="134.19" fill="#FFF087" ry="21.9177"/><rect x="612.304" y="223.65000000000003" width="87.47200000000001" height="134.19" fill="#ffacac" ry="21.9177"/><rect x="699.7760000000001" y="223.65000000000003" width="87.47200000000001" height="134.19" fill="#FFF087" ry="21.9177"/><rect x="787.248" y="223.65000000000003" width="87.47200000000001" height="134.19" fill="#FFF087" ry="21.9177"/><rect x="0" y="268.38" width="87.47200000000001" height="134.19" fill="#ffacac" ry="21.9177"/><rect x="87.47200000000001" y="268.38" width="87.47200000000001" height="134.19" fill="#c5b3ff" ry="21.9177"/><rect x="174.94400000000002" y="268.38" width="87.47200000000001" height="134.19" fill="#9dd5ff" ry="21.9177"/><rect x="262.416" y="268.38" width="87.47200000000001" height="134.19" fill="#FFF087" ry="21.9177"/><rect x="349.88800000000003" y="268.38" width="87.47200000000001" height="134.19" fill="#c5b3ff" ry="21.9177"/><rect x="437.36" y="268.38" width="87.47200000000001" height="134.19" fill="#9dd5ff" ry="21.9177"/><rect x="524.832" y="268.38" width="87.47200000000001" height="134.19" fill="#c5b3ff" ry="21.9177"/><rect x="612.304" y="268.38" width="87.47200000000001" height="134.19" fill="#9dd5ff" ry="21.9177"/><rect x="699.7760000000001" y="268.38" width="87.47200000000001" height="134.19" fill="#FFF087" ry="21.9177"/><rect x="787.248" y="268.38" width="87.47200000000001" height="134.19" fill="#9dd5ff" ry="21.9177"/><rect x="0" y="313.11" width="87.47200000000001" height="134.19" fill="#c5b3ff" ry="21.9177"/><rect x="87.47200000000001" y="313.11" width="87.47200000000001" height="134.19" fill="#ffacac" ry="21.9177"/><rect x="174.94400000000002" y="313.11" width="87.47200000000001" height="134.19" fill="#FFF087" ry="21.9177"/><rect x="262.416" y="313.11" width="87.47200000000001" height="134.19" fill="#ffacac" ry="21.9177"/><rect x="349.88800000000003" y="313.11" width="87.47200000000001" height="134.19" fill="#FFF087" ry="21.9177"/><rect x="437.36" y="313.11" width="87.47200000000001" height="134.19" fill="#FFF087" ry="21.9177"/><rect x="524.832" y="313.11" width="87.47200000000001" height="134.19" fill="#FFF087" ry="21.9177"/><rect x="612.304" y="313.11" width="87.47200000000001" height="134.19" fill="#c5b3ff" ry="21.9177"/><rect x="699.7760000000001" y="313.11" width="87.47200000000001" height="134.19" fill="#9dd5ff" ry="21.9177"/><rect x="787.248" y="313.11" width="87.47200000000001" height="134.19" fill="#c5b3ff" ry="21.9177"/><rect x="0" y="357.84000000000003" width="87.47200000000001" height="134.19" fill="#FFF087" ry="21.9177"/><rect x="87.47200000000001" y="357.84000000000003" width="87.47200000000001" height="134.19" fill="#ffacac" ry="21.9177"/><rect x="174.94400000000002" y="357.84000000000003" width="87.47200000000001" height="134.19" fill="#ffacac" ry="21.9177"/><rect x="262.416" y="357.84000000000003" width="87.47200000000001" height="134.19" fill="#ffacac" ry="21.9177"/><rect x="349.88800000000003" y="357.84000000000003" width="87.47200000000001" height="134.19" fill="#FFF087" ry="21.9177"/><rect x="437.36" y="357.84000000000003" width="87.47200000000001" height="134.19" fill="#9dd5ff" ry="21.9177"/><rect x="524.832" y="357.84000000000003" width="87.47200000000001" height="134.19" fill="#FFF087" ry="21.9177"/><rect x="612.304" y="357.84000000000003" width="87.47200000000001" height="134.19" fill="#c5b3ff" ry="21.9177"/><rect x="699.7760000000001" y="357.84000000000003" width="87.47200000000001" height="134.19" fill="#FFF087" ry="21.9177"/><rect x="787.248" y="357.84000000000003" width="87.47200000000001" height="134.19" fill="#c5b3ff" ry="21.9177"/><rect x="0" y="402.57" width="87.47200000000001" height="134.19" fill="#c5b3ff" ry="21.9177"/><rect x="87.47200000000001" y="402.57" width="87.47200000000001" height="134.19" fill="#FFF087" ry="21.9177"/><rect x="174.94400000000002" y="402.57" width="87.47200000000001" height="134.19" fill="#9dd5ff" ry="21.9177"/><rect x="262.416" y="402.57" width="87.47200000000001" height="134.19" fill="#ffacac" ry="21.9177"/><rect x="349.88800000000003" y="402.57" width="87.47200000000001" height="134.19" fill="#ffacac" ry="21.9177"/><rect x="437.36" y="402.57" width="87.47200000000001" height="134.19" fill="#9dd5ff" ry="21.9177"/><rect x="524.832" y="402.57" width="87.47200000000001" height="134.19" fill="#FFF087" ry="21.9177"/><rect x="612.304" y="402.57" width="87.47200000000001" height="134.19" fill="#9dd5ff" ry="21.9177"/><rect x="699.7760000000001" y="402.57" width="87.47200000000001" height="134.19" fill="#c5b3ff" ry="21.9177"/><rect x="787.248" y="402.57" width="87.47200000000001" height="134.19" fill="#9dd5ff" ry="21.9177"/></svg>